<svg xmlns="http://www.w3.org/2000/svg" width="135" height="135" viewBox="0 0 135 135"><path fill="#2563EB" d="M49.7 13.3l-15.8 9.2 7.3.7c12 1.2 19.7 4 35.2 12.8 8.1 4.5 15 8 15.3 7.6 1-1-3.5-15.6-6.4-20.6-3.1-5.3-16.4-19-18.4-18.9-.8 0-8.5 4.1-17.2 9.2zM92 22.2c5.5 10.2 7 18.3 7 38 0 9.8.4 17.8.9 17.8 2.1 0 13.2-13.4 16.1-19.4 2.7-5.8 6.9-22.1 5.9-23-.6-.6-32-18.6-32.4-18.6-.2 0 1 2.4 2.5 5.2zm-62.5 7.4c-1.1.2-5.7 1.6-10.2 3L11 35.2v18.9c0 10.4.2 18.9.4 18.9s1.8-2.2 3.6-4.9c5.3-8.4 15.5-16.9 30.3-25.5C52.8 38.3 59 34.4 59 34c0-2.3-23.5-5.9-29.5-4.4zm-1.6 32.7c-8.2 8.2-14.2 20.5-15.8 32.2l-.8 5.4 15.9 9.1 16.2 9c.3 0-.6-1.9-2-4.2-5.3-9.4-6.6-15.9-7.3-37.2l-.6-19.9-5.6 5.6zm90.3 5.3c-6.3 9.9-13.5 15.7-35 28.1l-10.3 6 5.8 1.9c9.1 3 26.6 2.7 35.7-.6 3.7-1.3 7-2.9 7.2-3.5.3-.6.3-9.1.2-19l-.3-18-3.3 5.1zM41.6 93.7c3.4 15.4 11.4 28.4 22.5 36.4l2.6 1.8 16.2-9.3 16.6-9.8c.3-.2-2.1-.5-5.2-.6-13-.3-20.6-3-39.5-13.9-6.9-4-12.9-7.3-13.2-7.3-.4 0-.4 1.2 0 2.7z"/></svg>